nColumns=19
nRows=23
DataType=double
version=3
OpenSimVersion=4.1
endheader
time	ground_force_calcn_r_vx	ground_force_calcn_r_vy	ground_force_calcn_r_vz	ground_force_calcn_r_px	ground_force_calcn_r_py	ground_force_calcn_r_pz	ground_force_calcn_r_mx	ground_force_calcn_r_my	ground_force_calcn_r_mz	ground_force_calcn_l_vx	ground_force_calcn_l_vy	ground_force_calcn_l_vz	ground_force_calcn_l_px	ground_force_calcn_l_py	ground_force_calcn_l_pz	ground_force_calcn_l_mx	ground_force_calcn_l_my	ground_force_calcn_l_mz
0.2	-9.57555	21.0651	0.15917	1.05955	0	-0.41459	0.0959546	-0.211089	-0.00159501	14.1575	41.0074	1.60747	0.660562	0	-0.543928	0.307169	0.889719	0.0348765
0.21	-12.3233	63.104	-1.24885	1.06577	0	-0.43208	0.137947	-0.706384	0.0139796	6.07628	24.2849	1.72196	0.684554	0	-0.536617	0.182979	0.731304	0.0518543
0.22	-5.62916	161.493	-2.31268	1.05975	0	-0.435264	0.0392844	-1.12702	0.0161395	-0.506856	12.8245	1.32802	0.743006	0	-0.539352	-0.0214136	0.541809	0.0561063
0.23	5.3808	333.609	-2.60268	1.05342	0	-0.431418	-0.0193455	-1.19942	0.00935738	-2.41913	6.33336	0.306505	0.777779	0	-0.569702	-0.102892	0.269374	0.0130364
0.24	3.19651	541.777	-5.40474	1.04953	0	-0.427631	-0.00438118	-0.742567	0.00740781	-0.136242	3.51869	-0.863458	-0.000648736	0	-1.64817e-05	-3.54446e-21	9.15421e-20	-2.24637e-20
0.25	-18.8359	711.829	-15.4915	1.04743	0	-0.426704	-0.00713337	0.269578	-0.00586679	1.8644	2.34716	-1.27419	-0.000648736	0	-1.64817e-05	-0	-0	0
0.26	-51.8899	817.687	-31.484	1.04572	0	-0.427863	-0.101593	1.60091	-0.0616409	1.34379	1.329	-0.751224	-0.000648736	0	-1.64817e-05	2.01477e-20	1.99259e-20	-1.12632e-20
0.27	-84.8891	893.162	-45.6744	1.04249	0	-0.428114	-0.270448	2.84552	-0.145514	0.730762	0.962691	-0.19238	-0.000648736	0	-1.64817e-05	2.5164e-21	3.31506e-21	-6.62466e-22
0.28	-105.237	971.922	-53.8956	1.03568	0	-0.42715	-0.396417	3.66113	-0.203019	1.31344	1.47601	-0.156421	-0.000648736	0	-1.64817e-05	-6.91583e-21	-7.77184e-21	8.23626e-22
0.29	-107.763	1057.82	-57.9874	1.02472	0	-0.427105	-0.398624	3.91295	-0.2145	1.36619	2.04278	-0.348582	-0.000648736	0	-1.64817e-05	-1.11892e-20	-1.67305e-20	2.85492e-21
0.3	-97.944	1138.58	-59.2963	1.01147	0	-0.427407	-0.31659	3.6803	-0.191667	0.856596	1.76996	-0.699023	-0.000648736	0	-1.64817e-05	8.12133e-21	1.67808e-20	-6.62739e-21
0.31	-83.9395	1200.99	-58.4857	0.997855	0	-0.42706	-0.224099	3.20636	-0.156144	1.24459	1.16235	-1.33961	-0.000648736	0	-1.64817e-05	-3.2207e-20	-3.00788e-20	3.46659e-20
0.32	-69.7989	1236.75	-57.9507	0.984527	0	-0.426884	-0.157184	2.78511	-0.130503	1.33083	1.08202	-1.76256	-0.000648736	0	-1.64817e-05	-2.21478e-20	-1.80071e-20	2.93328e-20
0.33	-56.3893	1246.41	-58.5523	0.971794	0	-0.426889	-0.118919	2.62856	-0.123481	0.286546	1.08655	-1.70168	-0.000648736	0	-1.64817e-05	1.0474e-20	3.97164e-20	-6.22009e-20
0.34	-43.7695	1234.71	-58.9261	0.959851	0	-0.426235	-0.0989407	2.79105	-0.133202	0.19616	1.06576	-1.65858	-0.000648736	0	-1.64817e-05	-4.69641e-21	-2.55163e-20	3.97094e-20
0.35	-31.439	1204	-58.9068	0.948383	0	-0.425387	-0.08286	3.17325	-0.155254	0.539498	1.59989	-1.62163	-0.000648736	0	-1.64817e-05	7.7455e-21	2.29694e-20	-2.32815e-20
0.36	-18.3806	1157.3	-58.7436	0.936972	0	-0.424836	-0.056817	3.5774	-0.181585	-0.0876474	2.2809	-1.3546	-0.000648736	0	-1.64817e-05	-2.23761e-21	5.82307e-20	-3.45825e-20
0.37	-4.54582	1100.59	-57.2765	0.925461	0	-0.423988	-0.0156451	3.78786	-0.197126	-0.0660398	2.20785	-1.27837	-0.000648736	0	-1.64817e-05	8.76736e-22	-2.93112e-20	1.69715e-20
0.38	10.2521	1038.23	-53.8176	0.913588	0	-0.422978	0.0360905	3.65489	-0.189455	0.592016	1.54187	-1.39504	-0.000648736	0	-1.64817e-05	1.65527e-20	4.31105e-20	-3.90052e-20
0.39	27.9406	972.481	-48.6407	0.900502	0	-0.422611	0.0905082	3.15017	-0.157562	0.439734	0.812105	-1.16778	-0.000648736	0	-1.64817e-05	4.27122e-21	7.88813e-21	-1.13429e-20
0.4	48.336	905.412	-41.5485	0.88561	0	-0.422637	0.126886	2.37678	-0.109068	0.0574793	0.312493	-0.641994	-0.000648736	0	-1.64817e-05	7.47651e-22	4.06469e-21	-8.3506e-21
0.41	67.9953	835.935	-33.1523	0.869331	0	-0.422486	0.124796	1.53424	-0.0608462	-0.0317133	0.0863159	-0.225433	-0.000648736	0	-1.64817e-05	-8.2749e-22	2.25223e-21	-5.88219e-21
0.42	84.0205	760.129	-25.7385	0.852303	0	-0.422706	0.0930968	0.842242	-0.0285189	-0.0146263	0.0173797	-0.0407637	-0.000648736	0	-1.64817e-05	-9.82385e-23	1.16732e-22	-2.73792e-22
